<svg width="216" height="216" viewBox="0 0 216 216" fill="none" xmlns="http://www.w3.org/2000/svg">
<g opacity="0.8">
<path d="M64.8 129.6C88.6587 129.6 108 110.259 108 86.4C108 62.5413 88.6587 43.2 64.8 43.2C40.9413 43.2 21.6 62.5413 21.6 86.4C21.6 110.259 40.9413 129.6 64.8 129.6Z" fill="#FF6B6B"/>
<path d="M108 129.6C131.859 129.6 151.2 110.259 151.2 86.4C151.2 62.5413 131.859 43.2 108 43.2C84.1413 43.2 64.8 62.5413 64.8 86.4C64.8 110.259 84.1413 129.6 108 129.6Z" fill="#4ECDC4"/>
<path d="M151.2 129.6C175.059 129.6 194.4 110.259 194.4 86.4C194.4 62.5413 175.059 43.2 151.2 43.2C127.341 43.2 108 62.5413 108 86.4C108 110.259 127.341 129.6 151.2 129.6Z" fill="#45B7D1"/>
</g>
<path d="M87.7998 151.875L89.7617 152.497C89.4609 153.591 88.9596 154.405 88.2578 154.938C87.5605 155.467 86.6741 155.731 85.5986 155.731C84.2679 155.731 83.1741 155.277 82.3174 154.371C81.4606 153.459 81.0322 152.215 81.0322 150.638C81.0322 148.97 81.4629 147.676 82.3242 146.755C83.1855 145.83 84.318 145.368 85.7217 145.368C86.9476 145.368 87.9433 145.73 88.709 146.455C89.1647 146.883 89.5065 147.498 89.7344 148.3L87.7314 148.779C87.6129 148.259 87.3646 147.849 86.9863 147.548C86.6126 147.247 86.1569 147.097 85.6191 147.097C84.8763 147.097 84.2724 147.364 83.8076 147.897C83.3473 148.43 83.1172 149.294 83.1172 150.488C83.1172 151.755 83.345 152.657 83.8008 153.195C84.2565 153.733 84.8489 154.001 85.5781 154.001C86.1159 154.001 86.5784 153.831 86.9658 153.489C87.3532 153.147 87.6312 152.609 87.7998 151.875ZM91.0469 151.828C91.0469 151.19 91.2041 150.572 91.5185 149.975C91.833 149.378 92.2773 148.922 92.8516 148.608C93.4303 148.293 94.0752 148.136 94.7861 148.136C95.8844 148.136 96.7845 148.494 97.4863 149.209C98.1881 149.92 98.5391 150.82 98.5391 151.91C98.5391 153.008 98.1836 153.919 97.4726 154.644C96.7663 155.364 95.8753 155.724 94.7998 155.724C94.1344 155.724 93.4987 155.574 92.8926 155.273C92.291 154.972 91.833 154.532 91.5185 153.954C91.2041 153.37 91.0469 152.662 91.0469 151.828ZM93.0156 151.93C93.0156 152.65 93.1865 153.202 93.5283 153.584C93.8701 153.967 94.2917 154.159 94.793 154.159C95.2943 154.159 95.7135 153.967 96.0508 153.584C96.3926 153.202 96.5635 152.646 96.5635 151.916C96.5635 151.206 96.3926 150.659 96.0508 150.276C95.7135 149.893 95.2943 149.702 94.793 149.702C94.2917 149.702 93.8701 149.893 93.5283 150.276C93.1865 150.659 93.0156 151.21 93.0156 151.93ZM100.05 155.56V145.539H101.971V155.56H100.05ZM103.502 151.828C103.502 151.19 103.659 150.572 103.974 149.975C104.288 149.378 104.732 148.922 105.307 148.608C105.885 148.293 106.53 148.136 107.241 148.136C108.34 148.136 109.24 148.494 109.941 149.209C110.643 149.92 110.994 150.82 110.994 151.91C110.994 153.008 110.639 153.919 109.928 154.644C109.221 155.364 108.33 155.724 107.255 155.724C106.59 155.724 105.954 155.574 105.348 155.273C104.746 154.972 104.288 154.532 103.974 153.954C103.659 153.37 103.502 152.662 103.502 151.828ZM105.471 151.93C105.471 152.65 105.642 153.202 105.983 153.584C106.325 153.967 106.747 154.159 107.248 154.159C107.749 154.159 108.169 153.967 108.506 153.584C108.848 153.202 109.019 152.646 109.019 151.916C109.019 151.206 108.848 150.659 108.506 150.276C108.169 149.893 107.749 149.702 107.248 149.702C106.747 149.702 106.325 149.893 105.983 150.276C105.642 150.659 105.471 151.21 105.471 151.93ZM114.344 155.56H112.423V148.3H114.207V149.332C114.512 148.845 114.786 148.524 115.027 148.369C115.273 148.214 115.551 148.136 115.861 148.136C116.299 148.136 116.72 148.257 117.126 148.498L116.531 150.173C116.208 149.964 115.907 149.859 115.629 149.859C115.36 149.859 115.132 149.934 114.945 150.084C114.758 150.23 114.61 150.497 114.501 150.884C114.396 151.272 114.344 152.083 114.344 153.318V155.56ZM118.001 155.56V145.539H120.024V149.989L124.112 145.539H126.833L123.06 149.442L127.038 155.56H124.42L121.665 150.857L120.024 152.532V155.56H118.001ZM128.077 147.316V145.539H129.998V147.316H128.077ZM128.077 155.56V148.3H129.998V155.56H128.077ZM135.303 148.3V149.831H133.99V152.757C133.99 153.35 134.002 153.696 134.024 153.796C134.052 153.892 134.109 153.972 134.195 154.036C134.286 154.099 134.396 154.131 134.523 154.131C134.701 154.131 134.959 154.07 135.296 153.947L135.46 155.437C135.013 155.628 134.507 155.724 133.942 155.724C133.596 155.724 133.284 155.667 133.006 155.553C132.728 155.435 132.523 155.284 132.391 155.102C132.263 154.915 132.174 154.664 132.124 154.35C132.083 154.127 132.062 153.676 132.062 152.997V149.831H131.181V148.3H132.062V146.858L133.99 145.737V148.3H135.303Z" fill="#333333"/>
<g opacity="0.9">
<path d="M54 69.12C56.3859 69.12 58.32 67.1859 58.32 64.8C58.32 62.4141 56.3859 60.48 54 60.48C51.6141 60.48 49.68 62.4141 49.68 64.8C49.68 67.1859 51.6141 69.12 54 69.12Z" fill="#FFD700"/>
<path d="M162 79.92C164.386 79.92 166.32 77.9859 166.32 75.6C166.32 73.2141 164.386 71.28 162 71.28C159.614 71.28 157.68 73.2141 157.68 75.6C157.68 77.9859 159.614 79.92 162 79.92Z" fill="#FFD700"/>
<path d="M108 58.32C110.386 58.32 112.32 56.3859 112.32 54C112.32 51.6141 110.386 49.68 108 49.68C105.614 49.68 103.68 51.6141 103.68 54C103.68 56.3859 105.614 58.32 108 58.32Z" fill="#FFD700"/>
</g>
</svg>
